<?xml version="1.0" standalone="no"?>
<!DOCTYPE svg PUBLIC "-//W3C//DTD SVG 20010904//EN"
 "http://www.w3.org/TR/2001/REC-SVG-20010904/DTD/svg10.dtd">
<svg version="1.0" xmlns="http://www.w3.org/2000/svg"
 width="824.000000pt" height="824.000000pt" viewBox="0 0 824.000000 824.000000"
 preserveAspectRatio="xMidYMid meet">
<metadata>
Created by potrace 1.11, written by Peter Selinger 2001-2013
</metadata>
<g transform="translate(0.000000,824.000000) scale(0.100000,-0.100000)"
fill="#000000" stroke="none">
<path d="M3579 8208 c0 -42 0 -5005 1 -5035 l0 -23 518 0 519 0 0 2545 0 2545
-519 0 -518 0 -1 -32z"/>
<path d="M5290 6058 l0 -593 87 -59 c48 -33 96 -68 108 -77 195 -162 334 -299
435 -429 14 -18 34 -44 46 -59 11 -14 36 -48 54 -76 19 -27 37 -51 42 -53 4
-2 8 -8 8 -14 0 -6 13 -29 29 -53 40 -59 141 -263 178 -360 51 -132 102 -310
117 -405 3 -19 7 -44 10 -55 5 -26 14 -95 23 -170 15 -126 7 -514 -11 -612 -3
-12 -8 -43 -11 -70 -4 -26 -13 -73 -20 -103 -8 -30 -16 -66 -19 -80 -9 -47
-67 -233 -82 -261 -8 -16 -14 -32 -14 -36 1 -9 -28 -81 -41 -103 -5 -8 -12
-22 -15 -30 -14 -36 -75 -154 -118 -225 -44 -75 -135 -210 -157 -234 -10 -11
-19 -23 -19 -26 0 -3 -8 -13 -17 -23 -10 -11 -40 -45 -68 -76 -79 -91 -194
-200 -256 -243 -12 -9 -31 -25 -42 -36 -55 -55 -316 -209 -470 -277 -117 -51
-379 -134 -462 -145 -11 -2 -33 -5 -50 -8 -42 -8 -114 -19 -153 -23 -18 -1
-36 -6 -41 -9 -5 -3 -12 -1 -16 5 -4 7 -12 7 -24 0 -18 -9 -377 -7 -466 3 -86
10 -141 19 -250 42 -102 21 -104 22 -140 34 -16 6 -66 22 -110 37 -321 104
-644 307 -875 550 -98 103 -150 164 -150 174 0 5 -3 10 -7 12 -13 5 -73 86
-73 97 0 5 -8 15 -17 20 -10 6 -13 11 -8 11 6 0 5 4 -1 8 -21 13 -166 270
-163 288 0 4 -3 10 -8 13 -13 9 -115 255 -127 306 -2 6 -9 30 -16 55 -8 25
-14 47 -15 50 -6 24 -16 69 -19 85 -2 11 -9 38 -14 60 -6 22 -13 60 -17 85 -3
25 -8 56 -10 70 -13 78 -20 206 -20 365 1 194 6 273 31 415 3 19 8 49 11 65
14 92 101 387 116 393 4 2 7 9 7 17 0 25 78 195 95 207 5 4 7 8 3 8 -4 0 6 22
22 49 17 26 30 52 30 56 0 5 11 23 25 41 14 18 25 37 25 43 0 6 4 11 8 11 5 0
13 10 19 23 11 25 129 181 177 237 51 57 248 252 296 293 25 20 86 68 135 104
l91 67 -1 598 c0 497 -2 597 -13 593 -8 -3 -25 -8 -38 -11 -13 -3 -24 -9 -24
-14 0 -4 -17 -12 -39 -18 -76 -23 -333 -156 -454 -234 -247 -162 -375 -266
-577 -468 -164 -164 -308 -331 -380 -440 -8 -12 -20 -28 -25 -34 -6 -6 -25
-33 -42 -61 -18 -27 -36 -54 -41 -60 -10 -13 -80 -127 -109 -180 -20 -35 -119
-236 -158 -320 -31 -66 -138 -368 -150 -425 -2 -8 -11 -44 -20 -80 -24 -100
-33 -138 -41 -190 -3 -19 -7 -42 -9 -50 -4 -15 -10 -48 -20 -125 -6 -43 -9
-67 -21 -185 -10 -98 -11 -523 -1 -625 13 -136 17 -168 28 -243 16 -107 19
-124 26 -152 3 -14 7 -29 8 -35 2 -5 8 -37 16 -70 7 -33 13 -62 14 -65 1 -3 5
-18 9 -35 56 -217 222 -636 288 -724 10 -13 18 -27 18 -31 0 -5 18 -38 40 -74
22 -36 40 -70 40 -75 0 -5 3 -11 8 -13 4 -2 29 -37 56 -78 156 -238 356 -471
606 -704 29 -27 65 -59 80 -70 59 -44 236 -178 253 -192 9 -8 19 -14 21 -14 2
0 44 -25 92 -56 73 -46 295 -166 314 -170 7 -1 43 -17 123 -53 38 -17 73 -31
77 -31 5 0 21 -5 37 -12 15 -6 30 -12 33 -13 3 -1 12 -4 20 -8 48 -19 303 -90
365 -101 17 -3 41 -8 55 -11 65 -14 191 -36 235 -40 17 -2 48 -5 70 -9 106
-15 211 -20 455 -20 245 0 309 3 430 18 25 3 63 8 85 11 81 10 118 16 218 36
122 24 121 24 177 40 25 7 50 13 55 15 245 52 646 234 900 407 39 26 78 53 89
60 42 28 225 175 275 222 72 66 241 234 241 239 0 2 17 21 37 42 20 21 74 86
120 144 46 58 87 110 93 117 5 6 29 40 52 75 24 35 46 65 49 68 25 21 269 460
269 484 0 3 11 29 25 58 36 78 89 222 123 334 26 88 46 159 43 159 -1 0 5 23
13 50 17 58 35 147 51 255 2 14 7 43 10 65 42 262 41 742 0 1015 -3 19 -10 67
-16 105 -5 39 -12 79 -16 90 -4 11 -7 25 -8 30 -2 24 -18 94 -32 142 -8 29
-16 64 -19 78 -5 30 -91 287 -110 330 -7 17 -25 59 -40 95 -35 86 -120 255
-181 360 -27 47 -56 96 -64 110 -8 14 -17 27 -20 30 -3 3 -38 52 -77 110 -40
58 -85 119 -100 137 -15 17 -36 44 -47 59 -79 108 -327 364 -460 472 -22 18
-49 41 -60 50 -53 44 -115 92 -120 92 -3 0 -14 8 -24 18 -36 32 -50 42 -60 42
-5 0 -11 3 -13 8 -5 13 -175 118 -283 175 -22 12 -47 27 -55 33 -8 7 -18 13
-22 13 -9 1 -113 47 -149 67 -14 7 -59 25 -100 40 -41 14 -78 30 -83 35 -35
33 -36 23 -36 -583z"/>
</g>
</svg>
